<svg width="23" height="15" viewBox="0 0 23 15" fill="none" xmlns="http://www.w3.org/2000/svg">
<path d="M15.9719 14.1094C15.6906 13.8281 15.6906 13.5469 15.9719 13.2656L20.6828 8.0625H0.64374C0.26874 8.0625 0.0812397 7.875 0.0812397 7.5C0.0812397 7.125 0.26874 6.9375 0.64374 6.9375H20.6828L15.9719 1.73438C15.6906 1.45312 15.6906 1.17188 15.9719 0.890625C16.2531 0.609375 16.5344 0.609375 16.8156 0.890625C20.5187 4.96875 22.3937 7.03125 22.4406 7.07812C22.5344 7.17188 22.5812 7.3125 22.5812 7.5C22.5812 7.6875 22.5344 7.82812 22.4406 7.92188L16.8156 14.1094C16.7219 14.2031 16.5812 14.25 16.3937 14.25C16.2062 14.25 16.0656 14.2031 15.9719 14.1094Z" fill="#F9F9F9"/>
</svg>
